# xmcd
#
# Track frame offsets:
#  150
#  17982
#  38320
#  58335
#  87017
#  112542
#  125052
#  159530
#  182122
#  202265
#  216932
#  247677
#  265605
#
# Disc length: 4556 seconds
#
# Revision: 0
# Processed by: cddbd v1.5.1PL2 Copyright (c) Steve Scherf et al.
# Submitted via: Collectorz.com_Music_Collector 6.9
#
DISCID=aa11ca0d
DTITLE=Colosseum - Those Who Are About To Die Salute You/Valentyne Suite
DYEAR=1969
DGENRE=Blues
TTITLE0=Walking In The Park
TTITLE1=Plenty Hard Luck
TTITLE2=Mandarin
TTITLE3=Debut
TTITLE4=Beware The Ide Of March
TTITLE5=The Road She Walked Before
TTITLE6=Backwater Blues
TTITLE7=Those About To Die
TTITLE8=The Kettle
TTITLE9=Elegy
TTITLE10=Butty's Blues
TTITLE11=The Machine Demands A Sacrifice
TTITLE12=The Valentyne Suite
EXTD=
EXTT0=
EXTT1=
EXTT2=
EXTT3=
EXTT4=
EXTT5=
EXTT6=
EXTT7=
EXTT8=
EXTT9=
EXTT10=
EXTT11=
EXTT12=
PLAYORDER=
